# xmcd
#
# Track frame offsets: 
#        182
#        14760
#        31942
#        45750
#        77510
#        100450
#        112482
#        141630
#        155580
#        171550
#        179572
#
# Disc length: 2529 seconds
#
# Revision: 2
# Processed by: cddbd v1.5.2PL0 Copyright (c) Steve Scherf et al.
# Submitted via: ExactAudioCopyFreeDBPlugin 1.0
#
DISCID=9d09df0b
DTITLE=Memphis Slim and Canned Heat - Memphis Heat
DYEAR=1974
DGENRE=Blues
TTITLE0=Back To Mother Earth
TTITLE1=Trouble Everywhere I Go
TTITLE2=Black Cat Cross My Trail
TTITLE3=Mr. Longfingers
TTITLE4=Five Long Years
TTITLE5=When I Was Young
TTITLE6=You Don't Know My Mind
TTITLE7=Boogie Duo
TTITLE8=Down The Big Road
TTITLE9=Whizzle Wham
TTITLE10=Paris
EXTD=Candid Records (Import - Germany) ARD Verve 514725-2 1973
EXTT0=
EXTT1=
EXTT2=
EXTT3=
EXTT4=
EXTT5=
EXTT6=
EXTT7=
EXTT8=
EXTT9=
EXTT10=
PLAYORDER=
